<?xml version="1.0" encoding="utf-8"?>
<!-- Generator: Adobe Illustrator 26.1.0, SVG Export Plug-In . SVG Version: 6.00 Build 0)  -->
<svg version="1.1" id="Layer_1" xmlns="http://www.w3.org/2000/svg" xmlns:xlink="http://www.w3.org/1999/xlink" x="0px" y="0px"
	 viewBox="0 0 448 512" style="enable-background:new 0 0 448 512;" xml:space="preserve">
<style type="text/css">
	.st0{fill:#FFFFFF;}
</style>
<path d="M400,32H48C21.5,32,0,53.5,0,80v352c0,26.5,21.5,48,48,48h352c26.5,0,48-21.5,48-48V80C448,53.5,426.5,32,400,32z"/>
<g>
	<path class="st0" d="M310.7,120.4h46.5L255.6,234.9L375,390.6h-93.5l-73.3-94.4l-83.8,94.4H77.9l108.6-122.4L72,120.4h95.9
		l66.2,86.3L310.7,120.4z M294.3,363.1h25.8L153.9,146.4h-27.6L294.3,363.1z"/>
</g>
</svg>
