<?xml version="1.0" encoding="utf-8"?>
<!-- Generator: Adobe Illustrator 26.1.0, SVG Export Plug-In . SVG Version: 6.00 Build 0)  -->
<svg version="1.1" id="Layer_1" xmlns="http://www.w3.org/2000/svg" xmlns:xlink="http://www.w3.org/1999/xlink" x="0px" y="0px"
	 viewBox="0 0 27.7 28.6" style="enable-background:new 0 0 27.7 28.6;" xml:space="preserve">
<style type="text/css">
	.st0{fill:#1877F2;}
</style>
<path class="st0" d="M13.8,0.5C6.2,0.5,0,6.7,0,14.4c0,7,5.1,12.7,11.7,13.8v-9.7H8.2v-4h3.5l0-3.1c0-3.5,2.1-5.4,5.2-5.4
	c1.5,0,3.1,0.3,3.1,0.3v3.4h-1.7c-1.7,0-2.3,1.1-2.3,2.2l0,2.6h3.8l-0.6,4H16v9.7c6.6-1,11.7-6.8,11.7-13.8
	C27.7,6.7,21.5,0.5,13.8,0.5z"/>
</svg>
