<?xml version="1.0" encoding="utf-8"?>
<!-- Generator: Adobe Illustrator 26.1.0, SVG Export Plug-In . SVG Version: 6.00 Build 0)  -->
<svg version="1.1" id="Layer_1" xmlns="http://www.w3.org/2000/svg" xmlns:xlink="http://www.w3.org/1999/xlink" x="0px" y="0px"
	 viewBox="0 0 27.5 27.9" style="enable-background:new 0 0 27.5 27.9;" xml:space="preserve">
<style type="text/css">
	.st0{fill:url(#SVGID_1_);}
</style>
<linearGradient id="SVGID_1_" gradientUnits="userSpaceOnUse" x1="27.3497" y1="20.4281" x2="1.2185" y2="11.853" gradientTransform="matrix(1 0 0 -1 0 29.8926)">
	<stop  offset="0" style="stop-color:#BA00B4"/>
	<stop  offset="1" style="stop-color:#ED1F1F"/>
</linearGradient>
<path class="st0" d="M26.3,5.2c-0.3-0.9-0.8-1.6-1.5-2.4c-0.7-0.7-1.5-1.2-2.4-1.5c-0.8-0.3-1.8-0.6-3.2-0.6
	c-1.4-0.1-1.9-0.1-5.5-0.1c-3.6,0-4.1,0-5.5,0.1C6.8,0.8,5.8,1,5,1.3C4.1,1.7,3.4,2.1,2.6,2.9C1.9,3.6,1.4,4.3,1.1,5.2
	C0.8,6.1,0.6,7,0.5,8.4c-0.1,1.4-0.1,1.9-0.1,5.5c0,3.6,0,4.1,0.1,5.5c0.1,1.4,0.3,2.4,0.6,3.2c0.3,0.9,0.8,1.6,1.5,2.4
	c0.7,0.7,1.5,1.2,2.4,1.5c0.8,0.3,1.8,0.6,3.2,0.6c1.4,0.1,1.9,0.1,5.5,0.1c3.6,0,4.1,0,5.5-0.1c1.4-0.1,2.4-0.3,3.2-0.6
	c0.9-0.3,1.6-0.8,2.4-1.5c0.7-0.7,1.2-1.5,1.5-2.4c0.3-0.8,0.6-1.8,0.6-3.2C27,18,27,17.6,27,13.9c0-3.6,0-4.1-0.1-5.5
	C26.9,7,26.7,6.1,26.3,5.2z M24.6,19.3c-0.1,1.3-0.3,2-0.5,2.5c-0.2,0.6-0.5,1.1-1,1.5c-0.5,0.5-0.9,0.8-1.5,1
	c-0.5,0.2-1.2,0.4-2.5,0.5c-1.4,0.1-1.8,0.1-5.4,0.1c-3.6,0-4,0-5.4-0.1c-1.3-0.1-2-0.3-2.5-0.5c-0.6-0.2-1.1-0.5-1.5-1
	c-0.5-0.5-0.8-0.9-1-1.5c-0.2-0.5-0.4-1.2-0.5-2.5c-0.1-1.4-0.1-1.8-0.1-5.4c0-3.6,0-4,0.1-5.4c0.1-1.3,0.3-2,0.5-2.5
	c0.2-0.6,0.5-1.1,1-1.5c0.5-0.5,0.9-0.8,1.5-1C6.3,3.4,7,3.2,8.3,3.1C9.8,3,10.2,3,13.7,3c3.6,0,4,0,5.4,0.1c1.3,0.1,2,0.3,2.5,0.5
	c0.6,0.2,1.1,0.5,1.5,1c0.5,0.5,0.8,0.9,1,1.5c0.2,0.5,0.4,1.2,0.5,2.5c0.1,1.4,0.1,1.8,0.1,5.4C24.6,17.5,24.6,17.9,24.6,19.3z
	 M13.7,7.1c-3.8,0-6.8,3.1-6.8,6.8c0,3.8,3.1,6.8,6.8,6.8c3.8,0,6.8-3.1,6.8-6.8C20.6,10.2,17.5,7.1,13.7,7.1z M13.7,18.4
	c-2.5,0-4.4-2-4.4-4.4c0-2.5,2-4.4,4.4-4.4c2.5,0,4.4,2,4.4,4.4C18.2,16.4,16.2,18.4,13.7,18.4z M20.8,5.2c-0.9,0-1.6,0.7-1.6,1.6
	s0.7,1.6,1.6,1.6c0.9,0,1.6-0.7,1.6-1.6S21.7,5.2,20.8,5.2z"/>
</svg>
