<?xml version="1.0" encoding="utf-8"?>
<!-- Generator: Adobe Illustrator 26.1.0, SVG Export Plug-In . SVG Version: 6.00 Build 0)  -->
<svg version="1.1" id="Layer_1" xmlns="http://www.w3.org/2000/svg" xmlns:xlink="http://www.w3.org/1999/xlink" x="0px" y="0px"
	 viewBox="0 0 228 226" style="enable-background:new 0 0 228 226;" xml:space="preserve">
<style type="text/css">
	.st0{fill:#2A67B2;}
</style>
<path class="st0" d="M224.3,198.8c0-57.5,0-114.9,0-172.4c0-1.9-0.2-3.8-0.5-5.7c-0.8-6.9-5.2-10.6-11.4-12.5
	c-1.2-0.4-2.3-0.8-3.5-1.2C145.4,7,81.9,7,18.3,7c-1.3,0.4-2.5,0.9-3.8,1.3C7.3,10,4.4,15.4,2.6,21.9c0,60.5,0,121.1,0,181.6
	c0.2,0.2,0.4,0.4,0.4,0.7C5,214.7,12.6,218,22.9,218c60.6,0,121.2,0,181.9,0c2.8,0,5.8-0.3,8.5-1.2c7.3-2.3,10.6-7.1,11.1-15.1
	C224.4,200.7,224.3,199.8,224.3,198.8z M68.7,187c-11.3,0-22.1,0-33.1,0c0-33.7,0-67.1,0-100.8c11.1,0,22,0,33.1,0
	C68.7,119.8,68.7,153.3,68.7,187z M52.1,72.5c-11.4,0-19.2-7.6-19.2-18.5c0-10.9,7.9-18.4,19.3-18.4c11.4,0,19.3,7.6,19.3,18.5
	C71.4,65,63.5,72.5,52.1,72.5z M191.9,184.7c0,0.7-0.1,1.3-0.2,2.2c-11.1,0-22,0-33.2,0c-0.1-1.6-0.2-3.1-0.2-4.6
	c0-15.4,0-30.8,0-46.2c0-3.6-0.3-7.1-0.8-10.7c-1.6-10.1-10.7-16.1-20.6-13.8c-11.5,2.7-17.4,10.2-17.4,22.6
	c-0.1,15.8,0,31.6,0,47.4c0,1.6,0,3.2,0,5.3c-11.5,0-22.3,0-33.4,0c0-33.7,0-67.1,0-100.8c10.5,0,20.9,0,31.5,0c0,4,0,7.8,0,12.9
	c7.2-9.6,16.3-14.2,26.6-15.9c13.5-2.2,25.7,0.5,36.2,10.3c7.8,7.3,11.2,16.4,11.5,26.4C192.3,141.5,191.9,163.1,191.9,184.7z"/>
</svg>
