<?xml version="1.0" encoding="utf-8"?>
<!-- Generator: Adobe Illustrator 26.1.0, SVG Export Plug-In . SVG Version: 6.00 Build 0)  -->
<svg version="1.1" id="Layer_1" xmlns="http://www.w3.org/2000/svg" xmlns:xlink="http://www.w3.org/1999/xlink" x="0px" y="0px"
	 viewBox="0 0 27.9 24.5" style="enable-background:new 0 0 27.9 24.5;" xml:space="preserve">
<g>
	<path d="M12.6,14.2l1.3,1.3c0,0,0,0,0,0l3.7-3.7c0.6-0.6,0.6-1.6-0.1-2.2l-1.1-1.1l-1.3,1.3l0.2,0.2c0.4,0.4,0.4,1,0,1.3L12.6,14.2
		z"/>
	<path d="M9.1,17.6c-0.4,0.4-1,0.3-1.3,0l-1.5-1.5c-0.4-0.4-0.4-1,0-1.3l6.2-6.2c0.4-0.4,0.9-0.3,1.3,0l1.3-1.3l-0.9-0.9
		c-0.6-0.6-1.6-0.6-2.2-0.1l-8,8c-0.6,0.6-0.6,1.6,0.1,2.2l3.4,3.4C8,20.4,9,20.5,9.6,19.9l2.3-2.3l-1.4-1.3L9.1,17.6z"/>
	<rect x="14.2" y="7.6" transform="matrix(0.7071 -0.7071 0.7071 0.7071 -1.6501 13.1862)" width="1.8" height="1.9"/>
	<path d="M23.2,8l-3.4-3.4c-0.6-0.6-1.6-0.6-2.2-0.1l-2.3,2.3l1.4,1.4l1.4-1.4c0.4-0.4,1-0.3,1.3,0L21,8.4c0.4,0.4,0.4,1,0,1.3
		L14.9,16c-0.4,0.4-1,0.3-1.3,0L12,14.4c-0.4-0.4-0.4-1,0-1.3l2.8-2.8l-1.4-1.4l-3.7,3.7c-0.6,0.6-0.6,1.6,0.1,2.2l3.4,3.4
		c0.6,0.6,1.6,0.6,2.2,0.1l8-8C23.9,9.6,23.9,8.7,23.2,8z"/>
</g>
<g>
	<path d="M24,2.3c1,0,1.8,0.8,1.8,1.8v16.3c0,1-0.8,1.8-1.8,1.8H4c-1,0-1.8-0.8-1.8-1.8V4.1c0-1,0.8-1.8,1.8-1.8H24 M24,0.3H4
		C1.9,0.3,0.2,2,0.2,4.1v16.3c0,2.1,1.7,3.8,3.8,3.8h20c2.1,0,3.8-1.7,3.8-3.8V4.1C27.9,2,26.1,0.3,24,0.3L24,0.3z"/>
</g>
</svg>
