<?xml version="1.0" encoding="utf-8"?>
<!-- Generator: Adobe Illustrator 26.1.0, SVG Export Plug-In . SVG Version: 6.00 Build 0)  -->
<svg version="1.1" id="Layer_1" xmlns="http://www.w3.org/2000/svg" xmlns:xlink="http://www.w3.org/1999/xlink" x="0px" y="0px"
	 viewBox="0 0 22.1 20.5" style="enable-background:new 0 0 22.1 20.5;" xml:space="preserve">
<style type="text/css">
	.st0{fill:#FFFFFF;}
</style>
<g>
	<path d="M18.8,20.2H3.4c-1.6,0-3-1.3-3-3V3.3c0-1.6,1.3-3,3-3h15.4c1.6,0,3,1.3,3,3v13.9C21.8,18.9,20.4,20.2,18.8,20.2z"/>
</g>
<g>
	<path class="st0" d="M15.5,3.5h2.3l-5.1,5.7l6,7.8H14l-3.7-4.7l-4.2,4.7H3.8l5.4-6.1L3.5,3.5h4.8l3.3,4.3L15.5,3.5z M14.7,15.7h1.3
		L7.6,4.8H6.2L14.7,15.7z"/>
</g>
</svg>
