<?xml version="1.0" encoding="utf-8"?>
<!-- Generator: Adobe Illustrator 26.1.0, SVG Export Plug-In . SVG Version: 6.00 Build 0)  -->
<svg version="1.1" id="a" xmlns="http://www.w3.org/2000/svg" xmlns:xlink="http://www.w3.org/1999/xlink" x="0px" y="0px"
	 viewBox="0 0 98.8 70.4" style="enable-background:new 0 0 98.8 70.4;" xml:space="preserve">
<style type="text/css">
	.st0{fill:#FF0000;}
	.st1{fill:#FFFFFF;}
</style>
<g>
	<path class="st0" d="M94.9,12.4c-1.1-4.1-4.3-7.3-8.4-8.4c-7.4-2-37.1-2-37.1-2S19.7,2,12.3,4C8.2,5.1,5,8.3,3.9,12.4
		c-2,7.4-2,22.9-2,22.9s0,15.5,2,22.9c1.1,4.1,4.3,7.3,8.4,8.4c7.4,2,37.1,2,37.1,2s29.7,0,37.1-2c4.1-1.1,7.3-4.3,8.4-8.4
		c2-7.4,2-22.9,2-22.9S96.9,19.8,94.9,12.4L94.9,12.4z"/>
	<polygon class="st1" points="39.9,49.4 64.6,35.2 39.9,21 	"/>
</g>
</svg>
